<svg xmlns="http://www.w3.org/2000/svg" width="800" height="1000" viewBox="0 0 800 1000">
  <rect width="800" height="1000" fill="#242424"/>
  <g stroke="#e8e6e1" stroke-width="2" fill="none">
    <rect x="120" y="260" width="70" height="440"/>
    <rect x="200" y="300" width="60" height="400" fill="#e8e6e1" fill-opacity="0.9"/>
    <rect x="270" y="240" width="80" height="460"/>
    <rect x="360" y="320" width="55" height="380" fill="#e8e6e1" fill-opacity="0.5"/>
    <rect x="425" y="280" width="70" height="420"/>
    <g transform="rotate(9 560 700)">
      <rect x="505" y="290" width="75" height="410" fill="#e8e6e1" fill-opacity="0.75"/>
    </g>
    <rect x="610" y="330" width="60" height="370"/>
  </g>
  <path d="M90 700 h620" stroke="#e8e6e1" stroke-width="4"/>
  <g stroke="#e8e6e1" stroke-width="2" opacity="0.6">
    <path d="M140 320 h30 M140 360 h30"/>
    <path d="M290 300 h40 M290 340 h40"/>
    <path d="M445 340 h30 M445 380 h30"/>
  </g>
  <g fill="#e8e6e1" font-family="monospace" font-size="22" opacity="0.6">
    <text x="80" y="120">JAVA + SQLITE</text>
    <text x="80" y="935">1000+ ENTRIES · 5 TABLES</text>
  </g>
</svg>
