<svg xmlns="http://www.w3.org/2000/svg" width="800" height="1000" viewBox="0 0 800 1000">
  <rect width="800" height="1000" fill="#242424"/>
  <g stroke="#e8e6e1" stroke-width="2" opacity="0.25">
    <path d="M80 300 h640 M80 420 h640 M80 540 h640 M80 660 h640 M80 780 h640"/>
  </g>
  <g stroke="#e8e6e1" stroke-width="2">
    <g opacity="0.9">
      <path d="M160 340 v340"/><rect x="140" y="420" width="40" height="180" fill="#e8e6e1"/>
      <path d="M260 300 v300"/><rect x="240" y="360" width="40" height="140" fill="none"/>
      <path d="M360 380 v320"/><rect x="340" y="440" width="40" height="190" fill="#e8e6e1"/>
      <path d="M460 320 v280"/><rect x="440" y="380" width="40" height="130" fill="none"/>
      <path d="M560 260 v300"/><rect x="540" y="320" width="40" height="160" fill="#e8e6e1"/>
      <path d="M660 220 v260"/><rect x="640" y="270" width="40" height="120" fill="none"/>
    </g>
  </g>
  <path d="M120 640 L260 480 L400 560 L540 400 L700 300" fill="none" stroke="#e8e6e1" stroke-width="3" stroke-dasharray="12 8" opacity="0.7"/>
  <g fill="#e8e6e1" font-family="monospace" font-size="22" opacity="0.6">
    <text x="80" y="120">RF · XGBOOST · LSTM</text>
    <text x="80" y="935">FORECAST ENSEMBLE</text>
  </g>
</svg>
